<svg xmlns="http://www.w3.org/2000/svg" viewBox="0 0 100 100">
  <circle cx="50" cy="50" r="45" fill="#25D366"/>
  <path fill="#fff" d="M50 15c-19.3 0-35 15.7-35 35 0 6.2 1.6 12 4.4 17.1L15 85l18.4-4.8c4.9 2.7 10.5 4.2 16.6 4.2 19.3 0 35-15.7 35-35S69.3 15 50 15zm17.5 49.8c-.7 2.1-4.2 4-5.8 4.3-1.5.3-3.5.4-5.6-.4-1.3-.5-3-1.1-5.2-2.2-9.1-4.5-15.1-13.9-15.5-14.5-.4-.6-3.5-4.7-3.5-8.9s2.2-6.3 3-7.2c.8-.9 1.7-1.1 2.3-1.1h1.6c.5 0 1.2-.2 1.9 1.4.7 1.7 2.4 5.9 2.6 6.3.2.4.4.9.1 1.5-.3.6-.4.9-.8 1.4-.4.5-.8 1.1-1.2 1.5-.4.4-.8.9-.4 1.7.5.8 2.1 3.5 4.5 5.6 3.1 2.8 5.7 3.6 6.5 4 .8.4 1.3.3 1.7-.2.5-.5 2-2.3 2.5-3.1.5-.8 1.1-.7 1.8-.4.7.3 4.6 2.2 5.4 2.6.8.4 1.3.6 1.5 1 .3.3.3 2-.4 4.1z"/>
</svg>
